<?xml version="1.0" standalone="no"?>
<!DOCTYPE svg PUBLIC "-//W3C//DTD SVG 20010904//EN"
 "http://www.w3.org/TR/2001/REC-SVG-20010904/DTD/svg10.dtd">
<svg version="1.0" xmlns="http://www.w3.org/2000/svg"
 width="472.000000pt" height="472.000000pt" viewBox="0 0 472.000000 472.000000"
 preserveAspectRatio="xMidYMid meet">
<metadata>
Created by potrace 1.11, written by Peter Selinger 2001-2013
</metadata>
<g transform="translate(0.000000,472.000000) scale(0.100000,-0.100000)"
fill="#000000" stroke="none">
<path d="M2117 4714 c-2 -3 -24 -7 -48 -9 -24 -3 -69 -10 -99 -15 -30 -6 -68
-12 -85 -15 -16 -2 -31 -4 -32 -5 -2 -2 -7 -4 -13 -5 -5 -1 -11 -3 -12 -4 -2
-2 -14 -4 -28 -6 -50 -9 -60 -11 -66 -18 -4 -4 -17 -7 -29 -7 -12 0 -25 -3
-29 -7 -3 -4 -16 -8 -28 -10 -12 -2 -27 -8 -33 -13 -7 -5 -14 -7 -18 -4 -3 3
-16 -2 -30 -11 -14 -8 -29 -15 -33 -14 -5 2 -22 -3 -39 -11 -16 -7 -46 -19
-65 -27 -19 -8 -56 -26 -82 -39 -27 -13 -48 -21 -48 -17 0 5 -4 3 -8 -3 -4 -6
-34 -25 -67 -42 -33 -16 -76 -41 -95 -54 -19 -13 -43 -27 -52 -31 -10 -3 -18
-11 -18 -17 0 -6 -4 -9 -8 -6 -5 3 -21 -6 -37 -20 -16 -14 -44 -34 -62 -45
-18 -11 -33 -25 -33 -30 0 -6 -5 -7 -10 -4 -6 3 -13 -1 -16 -9 -3 -9 -12 -16
-20 -16 -8 0 -14 -4 -14 -9 0 -5 -16 -19 -35 -32 -19 -13 -38 -32 -41 -41 -3
-10 -9 -17 -13 -15 -11 3 -191 -179 -191 -193 0 -6 -4 -8 -10 -5 -5 3 -10 -1
-10 -10 0 -8 -7 -18 -15 -21 -8 -4 -15 -11 -15 -16 0 -6 -10 -20 -23 -32 -12
-11 -38 -45 -56 -73 -19 -29 -39 -53 -44 -53 -6 0 -8 -3 -4 -6 5 -5 -36 -66
-76 -114 -6 -8 -11 -16 -10 -17 4 -4 -10 -38 -18 -43 -10 -8 -129 -258 -129
-273 0 -7 -5 -18 -10 -23 -6 -6 -13 -24 -16 -40 -3 -16 -10 -31 -15 -35 -6 -3
-9 -10 -8 -15 1 -5 -1 -17 -4 -26 -18 -46 -20 -54 -23 -67 -1 -8 -6 -26 -10
-40 -4 -14 -6 -32 -5 -38 1 -7 -3 -13 -8 -13 -5 0 -10 -8 -9 -17 0 -10 -3 -29
-6 -43 -22 -96 -39 -189 -40 -225 -1 -16 -4 -34 -7 -40 -4 -5 -7 -117 -8 -248
-1 -188 2 -237 12 -231 9 6 9 5 0 -8 -7 -8 -10 -18 -6 -22 4 -3 8 -25 9 -49 2
-40 16 -121 29 -177 3 -14 8 -34 10 -45 2 -11 7 -33 10 -50 4 -16 8 -37 9 -45
0 -8 4 -17 8 -20 3 -3 8 -19 10 -35 2 -17 5 -32 8 -35 3 -3 13 -32 23 -65 20
-65 31 -93 67 -170 13 -27 24 -52 25 -55 0 -3 4 -11 8 -17 5 -7 5 -13 1 -13
-4 0 1 -9 11 -20 10 -11 14 -20 10 -20 -4 0 -1 -8 8 -18 10 -10 14 -22 10 -25
-3 -4 -1 -7 6 -7 7 0 9 -5 6 -10 -3 -6 -2 -10 3 -10 5 0 12 -8 15 -17 6 -18
37 -73 47 -83 3 -3 11 -17 19 -33 8 -15 18 -27 23 -27 5 0 6 -5 3 -10 -3 -5
-2 -10 2 -10 5 0 17 -15 28 -33 22 -38 100 -141 135 -179 14 -14 41 -45 60
-69 19 -23 49 -55 65 -70 17 -16 51 -47 76 -71 24 -24 67 -61 94 -83 27 -22
57 -48 67 -58 10 -9 22 -17 26 -17 5 0 17 -9 27 -20 10 -11 24 -20 32 -20 7 0
13 -4 13 -10 0 -5 7 -10 15 -10 8 0 15 -4 15 -9 0 -5 14 -14 30 -21 17 -7 30
-16 30 -21 0 -5 7 -9 15 -9 8 0 15 -5 15 -11 0 -5 4 -7 10 -4 5 3 10 1 10 -5
0 -6 5 -8 10 -5 5 3 10 2 10 -3 0 -11 242 -133 269 -135 12 -1 21 -4 21 -8 0
-3 18 -12 40 -19 22 -7 40 -17 40 -21 0 -5 6 -6 14 -3 8 3 17 1 20 -5 4 -6 13
-8 21 -4 8 3 15 0 15 -7 0 -6 5 -8 10 -5 6 3 10 1 10 -5 0 -6 5 -8 10 -5 6 3
16 3 23 -2 6 -4 21 -9 32 -10 11 -2 27 -6 35 -10 8 -3 24 -8 35 -10 39 -9 50
-11 50 -13 0 -1 11 -3 25 -5 14 -2 36 -6 50 -9 14 -4 39 -9 55 -12 17 -2 44
-7 60 -10 79 -14 117 -16 353 -19 138 -2 252 0 252 4 0 4 23 7 50 7 28 -1 50
1 50 5 0 4 21 10 48 13 70 8 107 14 110 16 1 2 7 4 12 5 6 1 13 4 18 5 4 1 9
2 13 2 3 0 43 10 90 24 46 14 91 27 99 29 8 2 17 4 20 5 3 1 8 2 13 1 4 0 7 4
7 11 0 6 3 9 6 5 4 -3 19 0 35 8 16 9 32 14 36 13 4 -1 35 11 68 27 33 15 66
28 73 28 6 0 12 3 12 7 0 3 18 14 41 24 55 24 198 105 221 125 10 9 21 15 24
13 3 -2 14 7 25 19 10 12 19 19 19 15 0 -7 47 27 81 59 9 8 19 15 22 15 7 0
47 32 84 67 13 13 27 23 31 23 4 1 12 11 19 23 7 12 12 18 13 12 0 -9 155 148
218 221 18 22 64 82 102 134 37 52 75 102 83 112 9 9 13 19 9 22 -3 4 3 13 14
20 10 8 16 17 12 21 -3 4 2 16 12 28 11 12 20 27 21 32 1 6 9 21 19 35 29 42
50 92 43 103 -3 6 -1 7 5 3 11 -6 16 6 13 27 0 4 4 7 9 7 6 0 10 4 10 9 0 5 4
20 9 33 5 13 9 25 9 28 0 3 7 18 16 34 8 16 13 33 10 38 -3 4 0 8 5 8 6 0 11
8 11 18 0 10 3 22 7 26 4 3 8 17 10 29 2 12 8 23 13 25 5 2 7 9 4 17 -3 7 -1
16 5 20 6 3 11 19 11 34 0 15 3 31 7 35 8 8 16 42 17 78 1 14 4 24 9 21 4 -2
8 8 9 24 1 26 3 42 8 53 3 9 9 44 14 85 2 22 5 40 6 40 1 0 4 16 7 35 8 55 12
540 5 540 -4 0 -8 17 -8 38 -2 33 -10 87 -14 87 -1 0 -3 18 -4 40 -2 22 -8 52
-14 68 -9 21 -9 27 1 27 9 0 9 2 -1 9 -7 4 -15 21 -17 37 -6 38 -10 55 -20 77
-4 10 -9 28 -10 40 -1 12 -3 22 -4 22 -2 0 -4 7 -6 15 -5 23 -45 133 -56 152
-5 10 -9 25 -9 33 0 8 -4 15 -8 15 -5 0 -9 6 -9 13 0 18 -133 281 -147 289 -6
4 -7 8 -3 8 4 0 -1 10 -13 22 -11 12 -20 26 -20 31 0 5 -13 26 -30 47 -16 21
-30 41 -30 44 0 7 -12 23 -40 54 -8 10 -26 33 -40 52 -14 19 -34 46 -45 59
-35 43 -240 245 -285 281 -23 19 -57 47 -75 63 -18 15 -36 27 -40 27 -3 0 -13
6 -20 13 -29 25 -40 33 -57 40 -10 3 -18 11 -18 17 0 5 -6 10 -14 10 -8 0 -21
6 -28 13 -19 17 -69 47 -90 54 -10 3 -18 10 -18 15 0 5 -4 7 -9 4 -5 -3 -14 1
-21 9 -7 8 -18 15 -26 15 -7 0 -19 7 -28 15 -8 9 -18 16 -21 15 -3 0 -22 7
-43 16 -20 10 -39 18 -42 18 -3 1 -15 7 -26 14 -12 6 -24 8 -28 5 -3 -3 -6 -1
-6 5 0 7 -8 12 -18 12 -10 0 -22 3 -26 7 -3 4 -13 8 -21 10 -21 4 -37 9 -60
17 -11 5 -31 12 -45 16 -14 4 -34 12 -45 16 -11 4 -26 6 -32 5 -7 -1 -13 2
-13 6 0 5 -9 10 -20 11 -11 1 -29 3 -40 4 -11 1 -20 6 -20 11 0 4 -4 6 -9 3
-5 -4 -22 -1 -37 4 -15 6 -42 11 -61 12 -18 1 -33 4 -33 8 0 5 -13 8 -67 11
-10 0 -25 3 -33 6 -8 3 -28 7 -45 9 -49 7 -522 14 -528 8z"/>
</g>
</svg>
